<svg xmlns="http://www.w3.org/2000/svg" width="711.091" height="523.916" viewBox="0 0 711.091 523.916"><defs><style>.a{fill:#e6e6e6;}.b{fill:#ccc;}.c{fill:orange;}.d{opacity:0.2;}.e{fill:#2f2e41;}.f{fill:#a0616a;}.g{fill:#575a89;}.h{fill:#3f3d56;}.i{fill:#fff;}.j{fill:#b3b3b3;}.k{fill:#d0cde1;}</style></defs><g transform="translate(0 -0.001)"><rect class="a" width="298.897" height="8.768" transform="translate(412.194 193.999)"/><rect class="a" width="75.721" height="75.721" transform="translate(436.902 120.67)"/><rect class="b" width="45.432" height="45.432" transform="translate(452.046 135.814)"/><rect class="a" width="19.129" height="75.721" transform="translate(606.676 120.67)"/><rect class="b" width="19.129" height="8.768" transform="translate(606.676 132.626)"/><rect class="b" width="19.129" height="8.768" transform="translate(606.676 170.884)"/><rect class="a" width="19.129" height="75.721" transform="translate(577.185 120.67)"/><rect class="b" width="19.129" height="8.768" transform="translate(577.185 132.626)"/><rect class="b" width="19.129" height="8.768" transform="translate(577.185 170.884)"/><rect class="a" width="19.129" height="75.721" transform="matrix(0.896, -0.444, 0.444, 0.896, 625.144, 128.845)"/><rect class="b" width="19.129" height="8.768" transform="matrix(0.896, -0.444, 0.444, 0.896, 630.449, 139.559)"/><rect class="b" width="19.129" height="8.768" transform="matrix(0.896, -0.444, 0.444, 0.896, 647.424, 173.846)"/><path class="a" d="M522.224,170.382l9.634,16.685,9.633,16.685H502.958l9.633-16.685Z" transform="translate(-57.027 -19.318)"/><path class="a" d="M541.1,173.978l9.633,16.685,9.634,16.685H521.837l9.633-16.685Z" transform="translate(-59.167 -19.726)"/><circle class="a" cx="5.579" cy="5.579" r="5.579" transform="translate(483.132 138.204)"/><rect class="a" width="298.897" height="8.768" transform="translate(711.091 82.411) rotate(180)"/><rect class="a" width="75.721" height="75.721" transform="translate(686.382 76.034) rotate(180)"/><rect class="b" width="45.432" height="45.432" transform="translate(671.238 60.89) rotate(180)"/><rect class="a" width="19.129" height="75.721" transform="translate(516.608 76.034) rotate(180)"/><rect class="b" width="19.129" height="8.768" transform="translate(516.608 21.037) rotate(180)"/><rect class="b" width="19.129" height="8.768" transform="translate(516.608 59.296) rotate(180)"/><rect class="a" width="19.129" height="75.721" transform="translate(546.099 76.034) rotate(180)"/><rect class="b" width="19.129" height="8.768" transform="translate(546.099 21.037) rotate(180)"/><rect class="b" width="19.129" height="8.768" transform="translate(546.099 59.296) rotate(180)"/><rect class="a" width="19.129" height="75.721" transform="matrix(-0.896, -0.444, 0.444, -0.896, 464.543, 76.348)"/><rect class="b" width="19.129" height="8.768" transform="matrix(-0.896, -0.444, 0.444, -0.896, 488.945, 27.06)"/><rect class="b" width="19.129" height="8.768" transform="matrix(-0.896, -0.444, 0.444, -0.896, 471.969, 61.347)"/><path class="a" d="M739.78,34.634l-9.633,16.685L720.514,68h38.533l-9.634-16.685Z" transform="translate(-81.694 -3.927)"/><path class="a" d="M720.9,38.23l-9.633,16.685L701.635,71.6h38.533l-9.633-16.685Z" transform="translate(-79.553 -4.335)"/><circle class="a" cx="5.579" cy="5.579" r="5.579" transform="translate(628.994 17.849)"/><rect class="a" width="298.897" height="8.768" transform="translate(711.091 323.123) rotate(180)"/><rect class="a" width="75.721" height="75.721" transform="translate(686.382 316.746) rotate(180)"/><rect class="b" width="45.432" height="45.432" transform="translate(671.238 301.602) rotate(180)"/><rect class="a" width="19.129" height="75.721" transform="translate(516.608 316.746) rotate(180)"/><rect class="b" width="19.129" height="8.768" transform="translate(516.608 261.749) rotate(180)"/><rect class="b" width="19.129" height="8.768" transform="translate(516.608 300.007) rotate(180)"/><rect class="a" width="19.129" height="75.721" transform="translate(546.099 316.746) rotate(180)"/><rect class="b" width="19.129" height="8.768" transform="translate(546.099 261.749) rotate(180)"/><rect class="b" width="19.129" height="8.768" transform="translate(546.099 300.007) rotate(180)"/><rect class="a" width="19.129" height="75.721" transform="matrix(-0.896, -0.444, 0.444, -0.896, 464.543, 317.06)"/><rect class="b" width="19.129" height="8.768" transform="matrix(-0.896, -0.444, 0.444, -0.896, 488.945, 267.772)"/><rect class="b" width="19.129" height="8.768" transform="matrix(-0.896, -0.444, 0.444, -0.896, 471.97, 302.059)"/><path class="a" d="M739.78,306.129l-9.633,16.685L720.514,339.5h38.533l-9.634-16.686Z" transform="translate(-81.694 -34.71)"/><path class="a" d="M720.9,309.725l-9.633,16.685L701.635,343.1h38.533l-9.633-16.686Z" transform="translate(-79.553 -35.117)"/><circle class="a" cx="5.579" cy="5.579" r="5.579" transform="translate(628.994 258.561)"/><ellipse class="a" cx="352.101" cy="25.007" rx="352.101" ry="25.007" transform="translate(0 473.902)"/><path class="c" d="M882.58,723.326c-57.413-10.219-120.2-8.52-186.054,0,30.017-25.341,55.923-50.681,25.906-76.022,58.552,12.079,66.753,10.857,131.886,0C839.212,672.644,867.473,697.986,882.58,723.326Z" transform="translate(-255.399 -210.413)"/><path class="d" d="M882.58,723.326c-57.413-10.219-120.2-8.52-186.054,0,30.017-25.341,55.923-50.681,25.906-76.022,58.552,12.079,66.753,10.857,131.886,0C839.212,672.644,867.473,697.986,882.58,723.326Z" transform="translate(-255.399 -210.413)"/><path class="c" d="M870.367,713.094c-48.77-8.157-102.1-6.8-158.046,0,25.5-20.227,47.5-40.455,22.007-60.682,49.737,9.642,56.7,8.666,112.032,0C833.527,672.639,857.534,692.867,870.367,713.094Z" transform="translate(-257.19 -210.992)"/><circle class="e" cx="25.986" cy="25.986" r="25.986" transform="translate(568.615 417.539)"/><path class="f" d="M533.881,466.249l18.005,3,9,26.007-26.007,16.005-30.009-45.014h29.008Z" transform="translate(-57.244 -52.865)"/><circle class="f" cx="42.012" cy="42.012" r="42.012" transform="translate(485.64 369.372)"/><path class="e" d="M512.713,445.919s-102.029,11-120.035,9-26.008-4-26.008-4-12,16-6,23.007a43.287,43.287,0,0,0,12,10s11-3,19.006,0,89.026,16,103.029,4S512.713,445.919,512.713,445.919Z" transform="translate(-217.128 -187.579)"/><path class="e" d="M521.082,673.73S454.063,654.725,442.059,570.7v-8s-13.261,23.263-18.006,28.008c-5.5,5.5-25.007,55.016-24.007,60.017s0,7,0,7l-29.008-3v-9s15.5-46.513,16.5-57.517,38.511-87.525,38.511-87.525,14-29.008,38.011,0,26.007,49.014,26.007,49.014l31.009,60.017Z" transform="translate(-218.494 -192.326)"/><path class="e" d="M363.867,445.517l-32.009-11s-30.009-22.006-23.007,0,39.011,70.02,48.014,65.019,19.83-17.416,17.417-19.211S355.865,465.523,363.867,445.517Z" transform="translate(-211.323 -185.177)"/><path class="e" d="M369.654,659.259l-25.839,12.619s-31.248,4.807-13.821,13.821,65.5,18.628,67.9,10.216,1.45-22.375-1.078-22S376.865,676.084,369.654,659.259Z" transform="translate(-213.241 -211.768)"/><path class="g" d="M525.115,619.594s-13,56.016,9,68.02,176.051,14,188.054-8,6-22.006,6-22.006l-32.009-36.01,26.008-2s0-8-9-9-37.011-11-61.018-4-38.011-14-38.011-14Z" transform="translate(-235.531 -204.209)"/><path class="h" d="M305.262,270.429l-17.005,93.027,117.034-14L426.3,265.428Z" transform="translate(-32.683 -30.095)"/><path class="i" d="M309.6,274.378l-14,83.024,106.531-12.5,20.506-75.522Z" transform="translate(-33.515 -30.543)"/><path class="j" d="M292,376.993l-4-1-2,4,32.01,89.026,3.01-1.151.99-5.851Z" transform="translate(-32.428 -42.631)"/><path class="k" d="M288.257,373.2l32.01,93.027L441.3,448.223,405.291,360.2Z" transform="translate(-32.683 -40.84)"/><path class="h" d="M306.309,370.2v5l89.025-10-1-5Z" transform="translate(-34.73 -40.84)"/><path class="h" d="M308.565,381.611l14,39.011,91.026-11-16-37.011Z" transform="translate(-34.986 -42.247)"/><path class="f" d="M631,594.1l-3-8s-23.007-40.012-35.01-32.009S618,601.1,618,601.1h12Z" transform="translate(-243.388 -199.724)"/><path class="f" d="M549.749,600.1l-3-12s-8-37.011,6-35.01S570.755,590.1,570.755,590.1l-1,8Z" transform="translate(-238.159 -199.721)"/><path class="g" d="M573.909,600.316s-26.007-4-27.008,2-6,96.028,19.005,99.029,149.043,16,136.039-15-33.01-27.008-33.01-27.008l-85.023,9Z" transform="translate(-238.312 -204.937)"/><path class="g" d="M461.45,456.549l-26.507-18.505-17.505,13.5,22.007,24.007Z" transform="translate(-47.33 -49.667)"/><path class="d" d="M386.976,479.224l4,38.011,69.02-4-60.018-1Z" transform="translate(-43.876 -54.336)"/><circle class="e" cx="50.014" cy="50.014" r="50.014" transform="translate(498.377 369.004)"/><path class="c" d="M328.309,304.538l62.018-2.159,6-22.848-64.018,1.932Z" transform="translate(-37.225 -31.694)"/><path class="a" d="M310.258,321.508l94.027-3,1-4-94.027,3.311Z" transform="translate(-35.178 -35.659)"/><path class="a" d="M308,332.789l94.028-3,1-4L309,329.1Z" transform="translate(-34.922 -36.939)"/><path class="a" d="M306.873,341.815l94.027-3,1-4-94.028,3.31Z" transform="translate(-34.794 -37.962)"/></g></svg>