<svg xmlns="http://www.w3.org/2000/svg" width="888.006" height="505.221" viewBox="0 0 888.006 505.221"><defs><style>.a{opacity:0.49;}.b{fill:#e6e6e6;}.c{fill:#3f3d56;}.d{fill:#fff;}</style></defs><g class="a" transform="translate(0 -35.581)"><ellipse class="b" cx="444.003" cy="18" rx="444.003" ry="18" transform="translate(0 504.802)"/><circle class="c" cx="210.504" cy="210.504" r="210.504" transform="translate(248.552 103.889)"/><circle class="d" cx="193.078" cy="193.078" r="193.078" transform="translate(265.978 121.315)"/><circle class="c" cx="25.79" cy="25.79" r="25.79" transform="translate(432.569 289.3)"/><rect class="c" width="11.153" height="20.911" transform="translate(452.782 131.074)"/><rect class="c" width="11.153" height="20.911" transform="translate(452.782 478.196)"/><rect class="c" width="11.153" height="20.911" transform="translate(295.253 309.514) rotate(90)"/><path class="c" d="M11.153,20.911h0Z" transform="translate(642.375 309.514) rotate(90)"/><path class="c" d="M450.924,326.286l9.531-21.793L579.88,370.635Z"/><rect class="c" width="54.368" height="62.733" transform="translate(431.871 53.006)"/><ellipse class="c" cx="62.733" cy="17.426" rx="62.733" ry="17.426" transform="translate(396.323 35.581)"/></g></svg>