<svg xmlns="http://www.w3.org/2000/svg" width="669.657" height="591.224" viewBox="0 0 669.657 591.224"><defs><style>.a{fill:#e6e6e6;}.b{fill:#fff;}.c{fill:#ccc;}.d{fill:orange;}.e{fill:#3f3d56;}.f{fill:#2f2e41;}.g{fill:#ffb8b8;}.h{fill:#575a89;}.i{opacity:0.2;}</style></defs><g transform="translate(0 0)"><path class="a" d="M497.908,75.725l2.633-4.07a61,61,0,0,0-2.7-6.324l-1.7,1.375,1.348-2.084c-1.285-2.529-2.3-4.123-2.3-4.123s-5.281,8.322-7.045,17.133l3.379,5.222-3.741-3.021a24.688,24.688,0,0,0-.205,3.1c0,10.435,3.408,18.895,7.612,18.895S502.8,93.365,502.8,82.93a32.5,32.5,0,0,0-1.741-9.75Z" transform="translate(-238.071 -60.501)"/><path class="a" d="M518.943,88.451l4.74-1.016a61.008,61.008,0,0,0,2.561-6.382l-2.176-.232,2.427-.52c.88-2.7,1.292-4.539,1.292-4.539s-9.619,2.15-17.1,7.133l-1.3,6.082-.509-4.782a24.7,24.7,0,0,0-2.334,2.044c-7.379,7.379-10.951,15.771-7.978,18.743s11.364-.6,18.743-7.978a32.5,32.5,0,0,0,5.663-8.126Z" transform="translate(-240.467 -64.18)"/><path class="a" d="M516.688,136.421c-10.991.7-22.966-.041-35.706,0V107.253c11.226,1.748,23.2,1.568,35.706,0Z" transform="translate(-236.481 -71.77)"/><path class="a" d="M629.488,172.5l1.717-2.654a39.774,39.774,0,0,0-1.762-4.124l-1.11.9.879-1.359c-.838-1.649-1.5-2.689-1.5-2.689a38.134,38.134,0,0,0-4.594,11.173l2.2,3.406-2.439-1.97a16.082,16.082,0,0,0-.134,2.018c0,6.805,2.223,12.322,4.964,12.322s4.964-5.517,4.964-12.322a21.194,21.194,0,0,0-1.136-6.359Z" transform="translate(-270.654 -85.104)"/><path class="a" d="M643.206,180.8l3.091-.662a39.8,39.8,0,0,0,1.671-4.162l-1.419-.151,1.582-.339c.574-1.759.842-2.96.842-2.96a38.129,38.129,0,0,0-11.149,4.652l-.85,3.966-.332-3.118a16.11,16.11,0,0,0-1.522,1.333c-4.812,4.812-7.141,10.285-5.2,12.223s7.411-.391,12.223-5.2a21.194,21.194,0,0,0,3.693-5.3Z" transform="translate(-272.217 -87.503)"/><path class="a" d="M641.736,212.081c-7.167.458-14.977-.027-23.285,0V193.059a83.928,83.928,0,0,0,23.285,0Z" transform="translate(-269.617 -92.453)"/><path class="a" d="M636.77,287.064c-6.329.4-13.225-.024-20.561,0v-16.8a74.106,74.106,0,0,0,20.561,0Z" transform="translate(-269.077 -111.064)"/><rect class="a" width="276.674" height="7.728" transform="translate(127.131 62.599)"/><rect class="a" width="276.674" height="7.728" transform="translate(127.131 117.471)"/><rect class="a" width="276.674" height="7.728" transform="translate(127.131 172.342)"/><circle class="a" cx="15.457" cy="15.457" r="15.457" transform="translate(341.979 134.473)"/><circle class="b" cx="12.365" cy="12.365" r="12.365" transform="translate(345.07 137.564)"/><circle class="a" cx="3.091" cy="3.091" r="3.091" transform="translate(354.344 146.838)"/><rect class="a" width="1.546" height="12.365" transform="translate(368.255 149.157) rotate(90)"/><rect class="a" width="1.546" height="12.365" transform="translate(358.208 151.475) rotate(180)"/><rect class="a" width="10.227" height="40.482" transform="translate(257.836 79.769)"/><rect class="c" width="10.227" height="4.687" transform="translate(257.836 86.161)"/><rect class="c" width="10.227" height="4.687" transform="translate(257.836 106.615)"/><rect class="a" width="10.227" height="40.482" transform="translate(242.069 79.769)"/><rect class="c" width="10.227" height="4.687" transform="translate(242.069 86.161)"/><rect class="c" width="10.227" height="4.687" transform="translate(242.069 106.615)"/><rect class="a" width="10.227" height="40.482" transform="matrix(0.896, -0.444, 0.444, 0.896, 267.709, 84.14)"/><rect class="c" width="10.227" height="4.687" transform="matrix(0.896, -0.444, 0.444, 0.896, 270.545, 89.868)"/><rect class="c" width="10.227" height="4.687" transform="matrix(0.896, -0.444, 0.444, 0.896, 279.621, 108.198)"/><rect class="a" width="10.227" height="40.482" transform="translate(166.641 134.641)"/><rect class="c" width="10.227" height="4.687" transform="translate(166.641 141.033)"/><rect class="c" width="10.227" height="4.687" transform="translate(166.641 161.486)"/><rect class="a" width="10.227" height="40.482" transform="translate(150.875 134.641)"/><rect class="c" width="10.227" height="4.687" transform="translate(150.875 141.033)"/><rect class="c" width="10.227" height="4.687" transform="translate(150.875 161.486)"/><rect class="a" width="10.227" height="40.482" transform="matrix(0.896, -0.444, 0.444, 0.896, 176.515, 139.011)"/><rect class="c" width="10.227" height="4.687" transform="matrix(0.896, -0.444, 0.444, 0.896, 179.351, 144.739)"/><rect class="c" width="10.227" height="4.687" transform="matrix(0.896, -0.444, 0.444, 0.896, 188.426, 163.069)"/><rect class="a" width="10.227" height="40.482" transform="translate(262.473 134.641)"/><rect class="c" width="10.227" height="4.687" transform="translate(262.473 141.033)"/><rect class="c" width="10.227" height="4.687" transform="translate(262.473 161.486)"/><rect class="a" width="10.227" height="40.482" transform="translate(246.706 134.641)"/><rect class="c" width="10.227" height="4.687" transform="translate(246.706 141.033)"/><rect class="c" width="10.227" height="4.687" transform="translate(246.706 161.486)"/><rect class="a" width="10.227" height="40.482" transform="matrix(0.896, -0.444, 0.444, 0.896, 272.346, 139.011)"/><rect class="c" width="10.227" height="4.687" transform="matrix(0.896, -0.444, 0.444, 0.896, 275.182, 144.739)"/><rect class="c" width="10.227" height="4.687" transform="matrix(0.896, -0.444, 0.444, 0.896, 284.257, 163.069)"/><rect class="a" width="40.646" height="40.646" transform="translate(341.519 24.777)"/><rect class="c" width="24.388" height="24.388" transform="translate(349.649 32.906)"/><path class="a" d="M466.715,54.143l5.171,8.956,5.171,8.956H456.373l5.172-8.956Z" transform="translate(-110.007 -13.051)"/><path class="a" d="M478.554,56.4l5.172,8.956,5.171,8.956H468.212l5.172-8.956Z" transform="translate(-112.861 -13.595)"/><circle class="a" cx="2.995" cy="2.995" r="2.995" transform="translate(366.335 34.189)"/><rect class="a" width="40.646" height="40.646" transform="translate(135.946 24.777)"/><rect class="c" width="24.388" height="24.388" transform="translate(144.075 32.906)"/><path class="a" d="M195.851,54.143l5.171,8.956,5.172,8.956H185.509L190.68,63.1Z" transform="translate(-44.716 -13.051)"/><path class="a" d="M207.69,56.4l5.171,8.956,5.171,8.956H197.348l5.171-8.956Z" transform="translate(-47.57 -13.595)"/><circle class="a" cx="2.995" cy="2.995" r="2.995" transform="translate(160.761 34.189)"/><path class="d" d="M227.043,453.51l2.633-4.069a61.01,61.01,0,0,0-2.7-6.324l-1.7,1.375,1.348-2.084c-1.285-2.529-2.3-4.123-2.3-4.123s-5.281,8.322-7.045,17.133l3.379,5.222-3.741-3.021a24.681,24.681,0,0,0-.205,3.1c0,10.435,3.408,18.895,7.612,18.895s7.612-8.459,7.612-18.895a32.5,32.5,0,0,0-1.741-9.751Z" transform="translate(-172.78 -151.564)"/><path class="d" d="M248.077,466.236l4.74-1.016a61,61,0,0,0,2.561-6.382l-2.176-.232,2.427-.52c.88-2.7,1.292-4.539,1.292-4.539s-9.619,2.15-17.1,7.133l-1.3,6.082-.509-4.782a24.689,24.689,0,0,0-2.334,2.043C228.3,471.4,224.727,479.8,227.7,482.769s11.365-.6,18.743-7.978a32.5,32.5,0,0,0,5.663-8.126Z" transform="translate(-175.176 -155.243)"/><path class="e" d="M245.823,514.205c-10.991.7-22.966-.041-35.706,0V485.038c11.226,1.748,23.2,1.568,35.706,0Z" transform="translate(-171.19 -162.834)"/><rect class="a" width="148.384" height="192.436" transform="translate(380.234 360.527)"/><rect class="a" width="7.728" height="182.389" transform="translate(70.328 370.574)"/><rect class="a" width="528.618" height="15.457" transform="translate(0 347.388)"/><rect class="a" width="15.457" height="15.457" transform="translate(66.464 362.845)"/><path class="e" d="M589.088,489.8l-.87,3.478H566.579l-1.3-3.478H510.162v35.551H644.635V489.8Z" transform="translate(-122.973 -118.063)"/><path class="e" d="M589.088,548.857l-.87,3.478H566.579l-1.3-3.478H510.162v35.55H644.635v-35.55Z" transform="translate(-122.973 -132.3)"/><path class="e" d="M589.088,607.918l-.87,3.477H566.579l-1.3-3.477H510.162v35.55H644.635v-35.55Z" transform="translate(-122.973 -146.536)"/><path class="e" d="M589.088,666.979l-.87,3.478H566.579l-1.3-3.478H510.162v35.55H644.635v-35.55Z" transform="translate(-122.973 -160.773)"/><path class="a" d="M363.3,448.283h-45.6l1.545-20.093h42.506Z" transform="translate(-76.582 -103.214)"/><rect class="a" width="51.007" height="4.637" transform="translate(238.806 342.752)"/><path class="e" d="M564.816,318.128H390.542a4.637,4.637,0,0,0-4.637,4.637V429.029H569.453V322.764a4.637,4.637,0,0,0-4.636-4.636Z" transform="translate(-213.563 -122.601)"/><path class="a" d="M385.9,464.252V481.64a4.637,4.637,0,0,0,4.637,4.637H564.816a4.637,4.637,0,0,0,4.637-4.637V464.252Z" transform="translate(-213.563 -157.823)"/><rect class="b" width="165.387" height="92.74" transform="translate(181.616 205.187)"/><circle class="e" cx="4.637" cy="4.637" r="4.637" transform="translate(259.672 312.611)"/><path class="e" d="M1006.433,773.321c-16.89,1.081-35.293-.063-54.871,0V728.5c17.252,2.686,35.649,2.41,54.871,0Z" transform="translate(-349.912 -221.519)"/><path class="e" d="M829.959,644.531h-4.637l1.546-90.582h1.545Z" transform="translate(-198.941 -133.527)"/><path class="e" d="M857.453,645.338h-4.637l1.546-90.583h1.545Z" transform="translate(-205.568 -133.722)"/><path class="e" d="M805.52,645.338h-4.637l1.546-90.583h1.545Z" transform="translate(-193.05 -133.722)"/><path class="a" d="M986.023,524.333l7.485-11.568a173.408,173.408,0,0,0-7.68-17.977l-4.84,3.909,3.833-5.923c-3.653-7.19-6.527-11.72-6.527-11.72s-15.012,23.657-20.028,48.7l9.606,14.845-10.634-8.589a70.2,70.2,0,0,0-.583,8.8c0,29.664,9.688,53.712,21.639,53.712s21.639-24.048,21.639-53.712c0-9.2-2.08-18.818-4.951-27.717Z" transform="translate(-351.14 -161.873)"/><path class="d" d="M1013.513,526.369,1021,514.8a173.449,173.449,0,0,0-7.679-17.977l-4.84,3.909,3.833-5.923c-3.653-7.19-6.526-11.72-6.526-11.72s-15.012,23.657-20.028,48.7l9.605,14.845-10.634-8.589a70.2,70.2,0,0,0-.583,8.8c0,29.664,9.688,53.712,21.639,53.712s21.639-24.048,21.639-53.712c0-9.2-2.081-18.818-4.951-27.717Z" transform="translate(-357.767 -162.364)"/><path class="d" d="M961.584,526.369l7.485-11.568a173.449,173.449,0,0,0-7.679-17.977l-4.84,3.909,3.833-5.923c-3.652-7.19-6.526-11.72-6.526-11.72s-15.012,23.657-20.028,48.7l9.606,14.845L932.8,538.05a70.2,70.2,0,0,0-.583,8.8c0,29.664,9.688,53.712,21.639,53.712s21.639-24.048,21.639-53.712c0-9.2-2.081-18.818-4.95-27.717Z" transform="translate(-345.249 -162.364)"/><rect class="e" width="44.593" height="2.56" transform="translate(235.248 231.366)"/><rect class="d" width="68.862" height="2.56" transform="translate(235.248 240.703)"/><rect class="d" width="56.121" height="2.56" transform="translate(235.248 249.5)"/><rect class="e" width="32.762" height="2.56" transform="translate(235.248 258.264)"/><rect class="e" width="49.447" height="2.56" transform="translate(235.248 267.028)"/><rect class="e" width="5.46" height="5.46" transform="translate(214.924 230.456)"/><rect class="d" width="5.46" height="5.46" transform="translate(214.924 239.253)"/><rect class="d" width="5.46" height="5.46" transform="translate(214.924 248.05)"/><rect class="e" width="5.46" height="5.46" transform="translate(214.924 256.847)"/><rect class="e" width="5.46" height="5.46" transform="translate(214.924 265.644)"/><path class="d" d="M598.129,350.1h-23.4a81.846,81.846,0,0,1,0-27.9h23.4a50.2,50.2,0,0,0,0,27.9Z" transform="translate(-258.79 -123.582)"/><path class="f" d="M370.652,412.167l-9.627-2.347A24.785,24.785,0,0,1,336.7,380.127h0a32.4,32.4,0,0,1,32.355-32.436h0a32.4,32.4,0,0,1,32.436,32.355h0A25.744,25.744,0,0,1,370.652,412.167Z" transform="translate(-201.584 -129.727)"/><circle class="g" cx="23.804" cy="23.804" r="23.804" transform="translate(155.78 238.22)"/><path class="g" d="M371.274,422.108s-7.245,24.839-11.384,26.908,33.118,5.175,33.118,5.175-1.035-23.8,1.035-25.874S371.274,422.108,371.274,422.108Z" transform="translate(-207.215 -147.665)"/><path class="f" d="M406.658,623.767s46.572-4.14,52.782,11.384-4.14,107.634-4.14,107.634H435.636V667.234s-83.844-23.833-83.844-32.112S406.658,623.767,406.658,623.767Z" transform="translate(-205.34 -196.153)"/><path class="f" d="M478.458,775.29l10.349,4.14s12.419-1.035,7.245,8.28a20.494,20.494,0,0,1-14.489,10.349s-19.664,7.245-20.7,0,5.175-21.734,5.175-21.734Z" transform="translate(-231.604 -232.798)"/><path class="f" d="M379.929,621.519s46.572-4.14,52.782,11.384-4.14,107.634-4.14,107.634H408.908V664.987s-59.516-13.786-59.516-22.065c0-3.89-4.055-23.657,3.091-27.822C360.549,610.4,379.929,621.519,379.929,621.519Z" transform="translate(-204.486 -193.905)"/><path class="f" d="M444.367,775.29l10.349,4.14s12.419-1.035,7.245,8.28a20.5,20.5,0,0,1-14.489,10.349s-19.664,7.245-20.7,0,5.175-21.734,5.175-21.734Z" transform="translate(-223.386 -232.798)"/><path class="h" d="M356.416,453.471l31.1,3.381a22.907,22.907,0,0,1,19.937,18.038l12.092,57.237s4.14,56.922-4.14,60.026-19.664-12.419-35.188-10.349-35.705,6.727-35.705,6.727-3.205-101.887-3.623-110.221C340.056,461.65,356.416,453.471,356.416,453.471Z" transform="translate(-202.705 -155.225)"/><path class="g" d="M456.475,627.823l12.768,7.52s22.907-3.287,22.192,4.765-25.72,6.5-25.72,6.5l-15.388-9.482Z" transform="translate(-229.092 -197.252)"/><circle class="f" cx="15.376" cy="15.376" r="15.376" transform="translate(118.005 211.911)"/><path class="f" d="M347.418,343.836a15.369,15.369,0,0,0-18.4-15.055,15.369,15.369,0,1,1,9.586,28.965A15.364,15.364,0,0,0,347.418,343.836Z" transform="translate(-199.85 -124.813)"/><path class="f" d="M363.689,359.363l20.729-3.817,15.942,9.992a24.182,24.182,0,0,1,11.14,23.6l-15.966-4.047-3.575-8.965L387.7,383.1l-22.263,28.651-12.5-7.96-11.144-17.463Z" transform="translate(-202.93 -131.62)"/><path class="h" d="M393.136,463.427l10.349-5.175s21.734,3.1,25.873,17.594,22.769,114.878,22.769,114.878L434.533,599l-24.839-61.062Z" transform="translate(-215.306 -156.377)"/><path class="i" d="M245.917,458.23l10.358,40.206,18.368,45.155-.637,1.563L252.1,499.19Z" transform="translate(-59.277 -110.455)"/><path class="e" d="M142.924,716.6l-3.653-1.258,35.386-105.107,5.115,1.762Z" transform="translate(-33.571 -147.094)"/><path class="e" d="M310.588,716.6l3.654-1.258L278.855,610.231l-5.115,1.762Z" transform="translate(-65.984 -147.094)"/><path class="e" d="M223.66,739.956l3.864.014,1.2-122.868-5.41-.019Z" transform="translate(-53.829 -148.745)"/><path class="d" d="M290.966,582.667l10.6,42.839a34.021,34.021,0,0,0,24.774,24.834h0a180.829,180.829,0,0,0,89.972-.58l15.825-4.174a22.335,22.335,0,0,0,16.764-19.81,19.493,19.493,0,0,0-1.763-9.769q-.093-.2-.186-.391a25.853,25.853,0,0,0-22.464-14.525l-16.764-.541L346.669,573.5s-21-10.666-38.26-11.86A16.93,16.93,0,0,0,290.966,582.667Z" transform="translate(-190.557 -181.289)"/><rect class="a" width="60.281" height="81.921" transform="translate(412.307 266.627)"/><rect class="b" width="46.37" height="63.016" transform="translate(419.262 276.08)"/><rect class="e" width="22.467" height="2.56" transform="translate(437.512 292.571)"/><rect class="e" width="5.46" height="5.46" transform="translate(424.915 291.154)"/><rect class="e" width="22.467" height="2.56" transform="translate(437.512 303.39)"/><rect class="e" width="5.46" height="5.46" transform="translate(424.915 301.973)"/><rect class="e" width="22.467" height="2.56" transform="translate(437.512 314.21)"/><rect class="e" width="5.46" height="5.46" transform="translate(424.915 312.793)"/><rect class="e" width="4.637" height="4.637" rx="2.319" transform="translate(440.129 268.946)"/></g></svg>