<svg xmlns="http://www.w3.org/2000/svg" width="78.062" height="78.062" viewBox="0 0 78.062 78.062"><path d="M52.97,24.485C50.688,10.43,45.3.563,39.039.563S27.39,10.43,25.108,24.485ZM23.927,39.594a98.628,98.628,0,0,0,.519,10.073H53.616a98.629,98.629,0,0,0,.519-10.073,98.629,98.629,0,0,0-.519-10.073H24.447A98.627,98.627,0,0,0,23.927,39.594ZM75.04,24.485A39.119,39.119,0,0,0,50.168,2.2c3.841,5.32,6.486,13.33,7.871,22.286ZM27.894,2.2A39.092,39.092,0,0,0,3.038,24.485h17C21.409,15.53,24.053,7.519,27.894,2.2Zm48.83,27.322H58.669c.331,3.305.519,6.689.519,10.073S59,46.361,58.669,49.666h18.04a38.688,38.688,0,0,0,1.354-10.073A39.363,39.363,0,0,0,76.724,29.521ZM18.89,39.594c0-3.384.189-6.767.519-10.073H1.354a38.149,38.149,0,0,0,0,20.145h18.04C19.079,46.361,18.89,42.977,18.89,39.594ZM25.108,54.7c2.283,14.054,7.666,23.922,13.931,23.922S50.688,68.757,52.97,54.7ZM50.184,76.988A39.156,39.156,0,0,0,75.056,54.7h-17c-1.385,8.955-4.03,16.966-7.871,22.286ZM3.038,54.7A39.119,39.119,0,0,0,27.91,76.988c-3.841-5.32-6.486-13.33-7.871-22.286h-17Z" transform="translate(0 -0.563)"/></svg>