<svg xmlns="http://www.w3.org/2000/svg" width="78.062" height="78.062" viewBox="0 0 78.062 78.062"><path d="M79.162,62.738l-35.091,17.9V66.7L65.934,55.852l13.227,6.886Zm2.4-1.96V23.351L68.721,30.033V54.089ZM5.9,62.738l35.091,17.9V66.7L19.127,55.852,5.9,62.738Zm-2.4-1.96V23.351L16.34,30.033V54.089L3.5,60.778ZM5,20.93,40.991,2.572V16.049L17.935,27.482l-.176.091L5,20.93Zm75.058,0L44.071,2.572V16.049L67.127,27.483l.176.091L80.059,20.93Zm-39.069,42.6L19.421,52.833V31.645L40.99,42.875v20.65Zm3.08,0L65.64,52.833V31.645L44.071,42.875v20.65ZM20.881,29.193,42.535,18.455,64.188,29.193,42.535,40.468Z" transform="translate(-3.499 -2.572)"/></svg>