<svg xmlns="http://www.w3.org/2000/svg" width="78.062" height="78.062" viewBox="0 0 78.062 78.062"><path d="M55.428,23.508,53.79,24.832a22.616,22.616,0,0,0-14.515-5.855c-12.476,0-22.547,10.594-22.547,23.053a21.6,21.6,0,0,0,.244,3.38A16.156,16.156,0,0,1,33.107,28.439a15.941,15.941,0,0,1,10.908,4.3L39.624,36.3a4.928,4.928,0,1,0,4.356,4.356l13.1-15.473a1.177,1.177,0,0,0-1.655-1.673Zm-14.6,19.428a2.514,2.514,0,0,1-3.52,0,2.489,2.489,0,1,1,3.52,0ZM39.031,2.25A39.031,39.031,0,1,0,78.062,41.281,39.079,39.079,0,0,0,39.031,2.25Zm0,66.911A27.879,27.879,0,1,1,66.911,41.281,27.916,27.916,0,0,1,39.031,69.161Z" transform="translate(0 -2.25)"/></svg>