<svg xmlns="http://www.w3.org/2000/svg" width="78.062" height="78.062" viewBox="0 0 78.062 78.062"><path d="M43.344,21.84V4.5H3.375V82.562H81.437V21.84ZM19.363,73.882H11.369V65.2h7.994Zm0-17.34H11.369v-8.68h7.994Zm0-17.34H11.369v-8.68h7.994Zm0-17.361H11.369V13.16h7.994ZM35.351,73.882H27.357V65.2h7.994Zm0-17.34H27.357v-8.68h7.994Zm0-17.34H27.357v-8.68h7.994Zm0-17.361H27.357V13.16h7.994ZM73.443,73.882h-30.1V65.2h7.994v-8.66H43.344v-8.68h7.994v-8.68H43.344v-8.66h30.1ZM66.388,39.2H58.394v8.68h7.994Zm0,17.34H58.394v8.68h7.994Z" transform="translate(-3.375 -4.5)"/></svg>